<svg width="529" height="609" viewBox="0 0 529 609" fill="none" xmlns="http://www.w3.org/2000/svg">
<g filter="url(#filter0_dd_118_8178)">
<path d="M514.767 253.607C517.047 192.308 495.005 130.253 446.451 100.706C422.485 86.1252 394.463 77.5838 366.426 78.8421C336.346 80.1891 308.028 92.4313 279.665 102.527C251.302 112.623 220.586 120.705 191.35 113.54C170.196 108.345 151.589 95.5547 130.657 89.7075C48.1892 66.7627 -23.6205 160.259 16.7327 234.659C26.6359 252.897 41.8979 267.522 54.7322 283.865C67.5665 300.207 78.3283 319.895 76.5963 340.59C75.116 357.702 65.4052 372.964 61.364 389.662C53.6368 421.637 68.9727 456.839 95.4851 476.319C121.997 495.8 157.762 500.404 189.677 492.396C221.592 484.387 249.763 464.743 271.938 440.422C283.78 427.41 295.371 412.178 312.424 407.766C328.707 403.518 345.642 410.416 362.222 413.584C377.562 416.425 393.321 416.106 408.535 412.647C423.748 409.188 438.095 402.661 450.7 393.467C490.816 363.831 512.725 309.03 514.767 253.607Z" fill="#6366F1"/>
<path opacity="0.7" d="M514.767 253.607C517.047 192.308 495.005 130.253 446.451 100.706C422.485 86.1252 394.463 77.5838 366.426 78.8421C336.346 80.1891 308.028 92.4313 279.665 102.527C251.302 112.623 220.586 120.705 191.35 113.54C170.196 108.345 151.589 95.5547 130.657 89.7075C48.1892 66.7627 -23.6205 160.259 16.7327 234.659C26.6359 252.897 41.8979 267.522 54.7322 283.865C67.5665 300.207 78.3283 319.895 76.5963 340.59C75.116 357.702 65.4052 372.964 61.364 389.662C53.6368 421.637 68.9727 456.839 95.4851 476.319C121.997 495.8 157.762 500.404 189.677 492.396C221.592 484.387 249.763 464.743 271.938 440.422C283.78 427.41 295.371 412.178 312.424 407.766C328.707 403.518 345.642 410.416 362.222 413.584C377.562 416.425 393.321 416.106 408.535 412.647C423.748 409.188 438.095 402.661 450.7 393.467C490.816 363.831 512.725 309.03 514.767 253.607Z" fill="white"/>
<path d="M262.702 600C373.243 600 462.854 578.215 462.854 551.342C462.854 524.47 373.243 502.685 262.702 502.685C152.161 502.685 62.5501 524.47 62.5501 551.342C62.5501 578.215 152.161 600 262.702 600Z" fill="#6366F1"/>
<path opacity="0.5" d="M262.702 600C373.243 600 462.854 578.215 462.854 551.342C462.854 524.47 373.243 502.685 262.702 502.685C152.161 502.685 62.5501 524.47 62.5501 551.342C62.5501 578.215 152.161 600 262.702 600Z" fill="white"/>
<path d="M57.884 220.997L59.2163 221.663" stroke="#1E293B" stroke-width="0.517667" stroke-linecap="round" stroke-linejoin="round"/>
<path d="M61.8524 222.995L261.279 323.167" stroke="#1E293B" stroke-width="0.517667" stroke-linecap="round" stroke-linejoin="round" stroke-dasharray="1.03 1.03"/>
<path d="M262.596 323.819L263.928 324.485L263.188 323.197" stroke="#1E293B" stroke-width="0.517667" stroke-linecap="round" stroke-linejoin="round"/>
<path d="M261.75 320.65L138.218 102.068" stroke="#1E293B" stroke-width="0.517667" stroke-linecap="round" stroke-linejoin="round" stroke-dasharray="1.03 1.03"/>
<path d="M137.495 100.796L136.77 99.5077" stroke="#1E293B" stroke-width="0.517667" stroke-linecap="round" stroke-linejoin="round"/>
<path d="M469.883 220.997L468.551 221.663" stroke="#1E293B" stroke-width="0.517667" stroke-linecap="round" stroke-linejoin="round"/>
<path d="M465.917 222.995L266.491 323.167" stroke="#1E293B" stroke-width="0.517667" stroke-linecap="round" stroke-linejoin="round" stroke-dasharray="1.03 1.03"/>
<path d="M265.171 323.819L263.839 324.485L264.564 323.197" stroke="#1E293B" stroke-width="0.517667" stroke-linecap="round" stroke-linejoin="round"/>
<path d="M266.015 320.65L389.547 102.068" stroke="#1E293B" stroke-width="0.517667" stroke-linecap="round" stroke-linejoin="round" stroke-dasharray="1.03 1.03"/>
<path d="M390.273 100.796L390.999 99.5077" stroke="#1E293B" stroke-width="0.517667" stroke-linecap="round" stroke-linejoin="round"/>
<path d="M263.928 324.485V323.005" stroke="#1E293B" stroke-width="0.517667" stroke-linecap="round" stroke-linejoin="round"/>
<path d="M263.928 320.029V58.6517" stroke="#1E293B" stroke-width="0.517667" stroke-linecap="round" stroke-linejoin="round" stroke-dasharray="1.04 1.04"/>
<path d="M263.928 57.1569V55.6766" stroke="#1E293B" stroke-width="0.517667" stroke-linecap="round" stroke-linejoin="round"/>
<path d="M214.592 393.764L214.163 558.462C214.116 558.873 214.23 559.286 214.481 559.614C214.732 559.943 215.101 560.161 215.51 560.224C215.909 560.168 216.272 559.963 216.525 559.65C216.778 559.336 216.902 558.938 216.872 558.536L220.084 393.956L214.592 393.764Z" fill="white" stroke="#1E293B" stroke-width="0.517667" stroke-linecap="round" stroke-linejoin="round"/>
<path d="M318.819 388.464L319.218 532.172C319.253 532.52 319.152 532.868 318.937 533.143C318.722 533.419 318.409 533.601 318.064 533.652C317.719 533.601 317.408 533.418 317.195 533.142C316.983 532.866 316.886 532.518 316.924 532.172L314.185 388.583L318.819 388.464Z" fill="white" stroke="#1E293B" stroke-width="0.517667" stroke-linecap="round" stroke-linejoin="round"/>
<path d="M212.977 388.464L213.377 532.172C213.411 532.52 213.31 532.868 213.095 533.143C212.881 533.419 212.568 533.601 212.222 533.652C211.878 533.601 211.567 533.418 211.354 533.142C211.142 532.866 211.044 532.518 211.082 532.172L208.344 388.583L212.977 388.464Z" fill="white" stroke="#1E293B" stroke-width="0.517667" stroke-linecap="round" stroke-linejoin="round"/>
<path d="M315.843 393.764L316.302 558.462C316.349 558.873 316.235 559.286 315.984 559.614C315.733 559.943 315.364 560.161 314.955 560.224C314.558 560.165 314.197 559.959 313.945 559.646C313.692 559.333 313.567 558.937 313.593 558.536L310.381 393.956L315.843 393.764Z" fill="white" stroke="#1E293B" stroke-width="0.517667" stroke-linecap="round" stroke-linejoin="round"/>
<path d="M264.493 405.295C300.874 405.295 330.367 398.554 330.367 390.24C330.367 381.925 300.874 375.185 264.493 375.185C228.113 375.185 198.62 381.925 198.62 390.24C198.62 398.554 228.113 405.295 264.493 405.295Z" fill="#6366F1" stroke="#1E293B" stroke-width="0.517667" stroke-linecap="round" stroke-linejoin="round"/>
<path d="M226.744 328.807C226.744 328.807 212.681 350.272 212.681 363.594C212.681 376.917 221.563 388.019 228.225 391.72C234.886 395.421 302.98 392.46 302.98 392.46C302.98 392.46 321.484 381.358 319.263 362.854C317.413 347.415 305.2 329.547 305.2 329.547L226.744 328.807Z" fill="#1E293B" stroke="#1E293B" stroke-width="0.517667" stroke-linecap="round" stroke-linejoin="round"/>
<path d="M254.131 533.83C254.131 533.83 250.43 556.034 244.509 564.916C238.588 573.798 229.706 571.577 230.446 561.215C231.186 550.853 240.808 533.83 240.808 533.83H254.131Z" fill="white" stroke="#1E293B" stroke-width="0.517667" stroke-linecap="round" stroke-linejoin="round"/>
<path d="M231.525 555.501C231.525 558.98 232.591 562.666 236.499 564.043C241.488 565.804 246.461 558.284 250.029 551.712C251.733 545.815 253.116 539.831 254.174 533.785H240.851C240.851 533.785 234.19 545.628 231.525 555.501Z" fill="#1E293B" stroke="#1E293B" stroke-width="0.517667" stroke-linecap="round" stroke-linejoin="round"/>
<path d="M245.248 350.272C245.248 350.272 259.311 359.154 263.012 370.256C266.712 381.359 254.87 533.83 254.87 533.83H241.547C241.547 533.83 235.626 471.657 231.185 450.193C226.744 428.728 233.406 399.862 233.406 395.421C233.406 390.981 214.162 400.602 212.681 363.595" fill="#1E293B"/>
<path d="M245.248 350.272C245.248 350.272 259.311 359.154 263.012 370.256C266.712 381.359 254.87 533.83 254.87 533.83H241.547C241.547 533.83 235.626 471.657 231.185 450.193C226.744 428.728 233.406 399.862 233.406 395.421C233.406 390.981 214.162 400.602 212.681 363.595" stroke="#1E293B" stroke-width="0.517667" stroke-linecap="round" stroke-linejoin="round"/>
<path d="M275.595 533.83C275.595 533.83 279.296 556.034 285.217 564.916C291.139 573.798 300.02 571.577 299.28 561.215C298.54 550.853 288.918 533.83 288.918 533.83H275.595Z" fill="white" stroke="#1E293B" stroke-width="0.517667" stroke-linecap="round" stroke-linejoin="round"/>
<path d="M292.765 563.125C296.422 563.125 298.08 560.742 298.687 557.633C296.496 547.36 288.857 533.83 288.857 533.83H275.535C275.535 533.83 276.778 541.305 278.984 549.314C282.418 555.664 287.51 563.125 292.765 563.125Z" fill="#1E293B" stroke="#1E293B" stroke-width="0.517667" stroke-linecap="round" stroke-linejoin="round"/>
<path d="M284.521 350.272C284.521 350.272 270.458 359.154 266.757 370.256C263.056 381.359 274.899 533.83 274.899 533.83H288.222C288.222 533.83 294.143 471.657 298.584 450.193C303.025 428.728 296.363 399.862 296.363 395.421C296.363 390.981 317.783 399.862 319.263 362.855" fill="#1E293B"/>
<path d="M284.521 350.272C284.521 350.272 270.458 359.154 266.757 370.256C263.056 381.359 274.899 533.83 274.899 533.83H288.222C288.222 533.83 294.143 471.657 298.584 450.193C303.025 428.728 296.363 399.862 296.363 395.421C296.363 390.981 317.783 399.862 319.263 362.855" stroke="#1E293B" stroke-width="0.517667" stroke-linecap="round" stroke-linejoin="round"/>
<path d="M98.1497 344.1L97.4244 523.557C97.4244 524.122 97.6489 524.664 98.0487 525.064C98.4485 525.464 98.9907 525.688 99.556 525.688C100.107 525.689 100.637 525.474 101.032 525.09C101.428 524.705 101.657 524.182 101.673 523.631L106.795 344.351L98.1497 344.1Z" fill="white" stroke="#1E293B" stroke-width="0.517667" stroke-linecap="round" stroke-linejoin="round"/>
<path d="M86.0708 386.052L85.375 571.578C85.373 571.859 85.4268 572.137 85.5333 572.396C85.6397 572.656 85.7966 572.891 85.995 573.09C86.1933 573.288 86.4291 573.445 86.6886 573.551C86.9481 573.658 87.2262 573.712 87.5066 573.71C88.0569 573.71 88.5861 573.498 88.9834 573.117C89.3807 572.736 89.6154 572.217 89.6383 571.667L94.7453 386.288L86.0708 386.052Z" fill="white" stroke="#1E293B" stroke-width="0.517667" stroke-linecap="round" stroke-linejoin="round"/>
<path d="M435.067 344.1L435.792 523.557C435.794 523.836 435.741 524.113 435.636 524.371C435.53 524.63 435.374 524.865 435.178 525.063C434.981 525.261 434.747 525.419 434.489 525.526C434.231 525.633 433.955 525.688 433.676 525.688C433.123 525.689 432.592 525.474 432.194 525.091C431.796 524.707 431.563 524.183 431.544 523.631L426.437 344.351L435.067 344.1Z" fill="white" stroke="#1E293B" stroke-width="0.517667" stroke-linecap="round" stroke-linejoin="round"/>
<path d="M447.162 386.052L447.887 571.578C447.889 571.859 447.835 572.137 447.729 572.396C447.623 572.656 447.466 572.891 447.267 573.09C447.069 573.288 446.833 573.445 446.574 573.551C446.314 573.658 446.036 573.712 445.756 573.71C445.207 573.71 444.679 573.497 444.284 573.116C443.889 572.735 443.658 572.215 443.639 571.667L438.532 386.288L447.162 386.052Z" fill="white" stroke="#1E293B" stroke-width="0.517667" stroke-linecap="round" stroke-linejoin="round"/>
<path d="M454.652 376.015L449.323 371.218L437.006 344.573C436.422 343.361 435.505 342.34 434.362 341.63C433.219 340.919 431.898 340.549 430.552 340.561H102.517C101.169 340.546 99.8444 340.915 98.6987 341.626C97.5529 342.336 96.6335 343.359 96.0481 344.573L80.6974 377.865L78.166 376.932V384.526L78.2845 384.438C78.4323 385.452 78.9456 386.378 79.728 387.04C80.5105 387.702 81.508 388.056 82.5329 388.035H450.522C451.6 388.059 452.646 387.664 453.439 386.932C454.232 386.2 454.709 385.189 454.77 384.112L454.652 376.015Z" fill="#1E293B" stroke="#1E293B" stroke-width="0.517667" stroke-linecap="round" stroke-linejoin="round"/>
<path d="M450.522 380.988H82.5328C81.8414 381.015 81.1544 380.867 80.5362 380.556C79.918 380.245 79.3887 379.783 78.9981 379.212C78.6076 378.641 78.3684 377.98 78.3031 377.291C78.2378 376.602 78.3485 375.908 78.6248 375.274L96.0479 337.63C96.6304 336.413 97.5491 335.389 98.6956 334.678C99.842 333.967 101.168 333.599 102.517 333.618H430.552C431.898 333.602 433.221 333.971 434.365 334.682C435.508 335.392 436.425 336.415 437.006 337.63L454.444 375.274C454.717 375.91 454.824 376.604 454.757 377.292C454.689 377.981 454.448 378.641 454.056 379.211C453.665 379.781 453.135 380.243 452.517 380.554C451.899 380.865 451.213 381.014 450.522 380.988Z" fill="white" stroke="#1E293B" stroke-width="0.517667" stroke-linecap="round" stroke-linejoin="round"/>
<path d="M259.859 217.621C259.859 217.621 248.55 219.634 243.176 223.157C237.803 226.68 218.411 233.253 215.717 237.783C213.023 242.312 196.34 301.332 195.792 305.877C195.244 310.421 200.647 314.951 207.101 314.951C213.555 314.951 228.64 273.103 228.64 273.103L235.094 294.286L219.95 338.695H311.137L299.694 292.806L305.616 270.601L325.54 319.451C325.54 319.451 334.156 328.022 339.529 318.444C344.903 308.867 327.687 271.548 326.073 263.984C324.46 256.42 318.006 238.819 313.15 233.223C308.295 227.628 294.321 222.121 286.238 219.101C278.156 216.081 268.475 217.118 259.859 217.621Z" fill="#6366F1" stroke="#1E293B" stroke-width="0.517667" stroke-linecap="round" stroke-linejoin="round"/>
<path d="M310.309 253.237L305.617 270.572L311.982 262.46" stroke="#1E293B" stroke-width="0.517667" stroke-linecap="round" stroke-linejoin="round"/>
<path d="M222.376 252.409L228.638 273.089L219.031 260.788" stroke="#1E293B" stroke-width="0.517667" stroke-linecap="round" stroke-linejoin="round"/>
<path d="M266.86 248.383C283.144 248.782 288.177 231.3 288.724 220.079L286.237 219.132C278.17 216.171 268.474 217.119 259.858 217.652C255.694 218.413 251.599 219.517 247.616 220.953C248.208 229.834 251.45 247.998 266.86 248.383Z" fill="white" stroke="#1E293B" stroke-width="0.517667" stroke-linecap="round" stroke-linejoin="round"/>
<path d="M266.861 248.383L231.866 338.134H299.694L266.861 248.383Z" fill="white" stroke="#1E293B" stroke-width="0.517667" stroke-linecap="round" stroke-linejoin="round"/>
<path d="M332.778 310.23C332.778 310.23 323.26 312.214 320.077 317.513C316.894 322.813 313.016 330.732 309.138 335.366L320.432 341.287C320.432 341.287 332.423 332.405 337.012 328.719C339.471 326.754 341.145 323.972 341.729 320.879C342.313 317.785 341.768 314.585 340.194 311.858" fill="#6366F1"/>
<path d="M332.778 310.23C332.778 310.23 323.26 312.214 320.077 317.513C316.894 322.813 313.016 330.732 309.138 335.366L320.432 341.287C320.432 341.287 332.423 332.405 337.012 328.719C339.471 326.754 341.145 323.972 341.729 320.879C342.313 317.785 341.768 314.585 340.194 311.858" stroke="#1E293B" stroke-width="0.517667" stroke-linecap="round" stroke-linejoin="round"/>
<path d="M330.661 319.822C325.288 317.483 321.498 318.09 319.13 319.111C316.169 324.307 312.646 331.176 309.138 335.395L320.432 341.316C320.432 341.316 332.423 332.434 337.012 328.748C337.643 328.245 338.228 327.685 338.758 327.075C336.931 323.833 334.085 321.283 330.661 319.822Z" fill="white" stroke="#1E293B" stroke-width="0.517667" stroke-linecap="round" stroke-linejoin="round"/>
<path d="M310.188 333.574C310.188 333.574 305.244 332.908 302.417 334.566C299.59 336.224 293.95 342.826 295.711 343.818C297.473 344.809 301.011 338.533 302.772 338.533C304.699 338.766 306.595 339.208 308.427 339.85L310.188 333.574Z" fill="white" stroke="#1E293B" stroke-width="0.517667" stroke-linecap="round" stroke-linejoin="round"/>
<path d="M318.79 333.692C318.79 333.692 312.084 331.708 308.206 332.36C304.328 333.011 299.028 343.61 297.267 346.911C295.505 350.212 296.911 351.204 298.318 350.212C299.724 349.22 304.328 341.952 304.328 341.952L300.434 351.219C300.63 351.585 300.961 351.86 301.357 351.985C301.752 352.109 302.181 352.073 302.551 351.885C304.032 351.219 308.931 341.286 308.931 341.286L306.089 351.559C306.338 351.864 306.672 352.089 307.049 352.205C307.426 352.321 307.828 352.323 308.206 352.211C309.686 351.885 313.491 343.625 313.491 343.625C313.491 343.625 309.968 353.202 311.019 353.543C311.78 353.591 312.537 353.391 313.175 352.971C313.814 352.552 314.298 351.937 314.556 351.219C316.637 347.727 318.999 344.41 321.618 341.301C323.379 339.376 322.669 335.335 318.79 333.692Z" fill="white" stroke="#1E293B" stroke-width="0.517667" stroke-linecap="round" stroke-linejoin="round"/>
<path d="M304.327 341.952L307.584 337.097" stroke="#1E293B" stroke-width="0.517667" stroke-linecap="round" stroke-linejoin="round"/>
<path d="M308.93 341.271L310.411 337.571" stroke="#1E293B" stroke-width="0.517667" stroke-linecap="round" stroke-linejoin="round"/>
<path d="M313.49 343.611L314.793 339.747" stroke="#1E293B" stroke-width="0.517667" stroke-linecap="round" stroke-linejoin="round"/>
<path d="M237.758 195.787C237.758 195.787 240.052 201.708 235.922 211.863C231.792 222.018 234.072 237.028 236.84 244.43C239.608 251.831 244.641 260.047 246.018 258.211C247.395 256.376 250.148 235.252 250.607 221.026C251.066 206.8 249.689 196.69 246.477 192.101C243.265 187.512 237.299 189.866 237.758 195.787Z" fill="#1E293B"/>
<path d="M246.018 258.197C246.018 258.197 242.806 266.916 242.806 273.34C242.806 279.765 250.607 283.436 250.607 283.436C250.607 283.436 254.737 276.552 253.361 269.669C251.984 262.786 246.018 258.197 246.018 258.197Z" fill="#1E293B"/>
<path d="M239.045 188.194C239.045 188.194 235.67 182.361 233.021 185.366C230.371 188.371 235.152 195.284 237.802 197.579C240.452 199.873 242.406 198.467 242.243 195.995C242.08 193.523 239.045 188.194 239.045 188.194Z" fill="white" stroke="#1E293B" stroke-width="0.517667" stroke-linecap="round" stroke-linejoin="round"/>
<path d="M292.618 188.194C292.618 188.194 295.978 182.361 298.642 185.366C301.307 188.371 296.511 195.284 293.861 197.579C291.211 199.873 289.243 198.467 289.42 195.995C289.598 193.523 292.618 188.194 292.618 188.194Z" fill="white" stroke="#1E293B" stroke-width="0.517667" stroke-linecap="round" stroke-linejoin="round"/>
<path d="M274.855 234.511C276.246 227.11 277.075 217.059 277.075 217.059C277.075 217.059 260.422 219.368 254.871 216.185C254.871 216.185 257.254 226.858 259.948 234.911" fill="white"/>
<path d="M274.855 234.511C276.246 227.11 277.075 217.059 277.075 217.059C277.075 217.059 260.422 219.368 254.871 216.185C254.871 216.185 257.254 226.858 259.948 234.911" stroke="#1E293B" stroke-width="0.517667" stroke-linecap="round" stroke-linejoin="round"/>
<path d="M239.402 190.147C239.402 190.147 244.005 206.431 252.724 216.008C261.443 225.586 264.567 227.851 269.2 227.155C273.834 226.459 278.763 220.434 285.661 207.911C292.559 195.388 293.063 185.706 293.64 184.892C294.217 184.078 292.16 166.3 282.301 158.676C272.442 151.052 261.399 147.707 251.836 156.026C242.274 164.346 236.204 177.92 239.402 190.147Z" fill="white" stroke="#1E293B" stroke-width="0.517667" stroke-linecap="round" stroke-linejoin="round"/>
<path d="M269.154 198.645C268.605 202.102 268.308 205.595 268.266 209.095C268.444 212.633 269.509 213.699 267.911 214.054C266.312 214.41 264.491 211.923 264.491 211.923" stroke="#1E293B" stroke-width="0.517667" stroke-linecap="round" stroke-linejoin="round"/>
<path d="M264.256 218.496H269.274" stroke="#1E293B" stroke-width="0.517667" stroke-linecap="round" stroke-linejoin="round"/>
<path d="M262.745 195.521C262.745 195.521 259.37 187.187 248.223 191.08" stroke="#1E293B" stroke-width="0.517667" stroke-linecap="round" stroke-linejoin="round"/>
<path d="M272.026 194.485C272.026 194.485 274.854 186.343 284.949 191.124" stroke="#1E293B" stroke-width="0.517667" stroke-linecap="round" stroke-linejoin="round"/>
<path d="M257.356 199.237C257.356 200.85 256.705 202.197 255.876 202.197C255.047 202.197 254.396 200.88 254.396 199.237C254.396 197.594 255.047 196.276 255.876 196.276C256.705 196.276 257.356 197.608 257.356 199.237Z" fill="#1E293B"/>
<path d="M276.808 202.167C277.617 202.167 278.274 200.855 278.274 199.236C278.274 197.617 277.617 196.305 276.808 196.305C275.999 196.305 275.343 197.617 275.343 199.236C275.343 200.855 275.999 202.167 276.808 202.167Z" fill="#1E293B"/>
<path d="M263.99 202.286C263.99 205.898 259.83 208.829 254.693 208.829C249.557 208.829 245.397 205.868 245.397 202.286C245.397 198.703 249.275 197.134 254.412 197.134C259.549 197.134 263.99 198.659 263.99 202.286Z" stroke="#1E293B" stroke-width="0.7765" stroke-linecap="round" stroke-linejoin="round"/>
<path d="M287.555 202.286C287.555 205.898 283.395 208.829 278.259 208.829C273.122 208.829 268.948 205.868 268.948 202.286C268.948 198.703 272.841 197.134 277.977 197.134C283.114 197.134 287.555 198.659 287.555 202.286Z" stroke="#1E293B" stroke-width="0.7765" stroke-linecap="round" stroke-linejoin="round"/>
<path d="M263.457 199.887C263.457 199.887 265.752 198.51 269.379 200.346" stroke="#1E293B" stroke-width="0.7765" stroke-linecap="round" stroke-linejoin="round"/>
<path d="M281.265 143.399C261.236 134.798 247.218 143.399 247.218 143.399C245.835 144.159 244.54 145.067 243.354 146.108C236.53 152.251 232.37 163.871 232.903 173.553C233.502 179.974 235.83 186.112 239.638 191.316C244.595 187.769 248.705 183.169 251.673 177.846C253.885 173.935 255.863 169.897 257.594 165.751C257.594 170.089 258.157 175.329 260.437 179.074C262.084 182.03 264.493 184.491 267.415 186.199C270.336 187.907 273.662 188.8 277.046 188.785C278.214 188.802 279.381 188.688 280.524 188.444C280.625 188.419 280.719 188.373 280.8 188.31C280.882 188.246 280.949 188.166 280.998 188.074C286.712 189.288 292.396 189.185 293.27 187.971C294.676 186.032 296.674 179.977 297.341 172.576C298.406 160.023 290.502 149.128 281.265 143.399ZM261.665 178.171C258.794 173.479 258.882 165.825 259.223 161.429L259.415 160.926C259.552 165.447 260.704 169.88 262.788 173.896C264.871 177.912 267.832 181.407 271.45 184.122C273.449 185.504 275.666 186.539 278.008 187.186C274.381 187.423 266.92 186.742 261.665 178.171Z" fill="#1E293B"/>
<path d="M261.918 154.916C261.918 154.916 260.704 163.886 272.102 172.679C283.5 181.472 294.307 178.009 294.307 178.009" stroke="white" stroke-width="0.258833" stroke-linecap="round" stroke-linejoin="round"/>
<path d="M263.589 151.866C263.589 151.866 275.594 169.348 292.174 164.789" stroke="white" stroke-width="0.258833" stroke-linecap="round" stroke-linejoin="round"/>
<path d="M198.101 304.056C193.568 305.475 189.181 307.324 185 309.578C179.079 312.938 157.792 325.106 151.383 327.06C144.973 329.014 141.376 328.703 138.267 331.945C135.159 335.187 125.285 345.46 124.027 349.916C122.768 354.372 124.737 353.898 126.543 352.684C128.349 351.47 133.471 345.031 138.001 344.587C142.531 344.143 144.307 344.306 144.366 346.733C144.425 349.161 141.405 357.229 143.804 356.533C146.202 355.837 147.267 352.092 148.777 347.977C150.287 343.862 150.11 338.044 150.894 336.549C151.679 335.054 175.008 330.628 182.41 329.251C189.811 327.874 202.394 323.226 206.095 320.162C209.796 317.098 212.416 308.142 212.416 308.142" fill="#6366F1"/>
<path d="M198.101 304.056C193.568 305.475 189.181 307.324 185 309.578C179.079 312.938 157.792 325.106 151.383 327.06C144.973 329.014 141.376 328.703 138.267 331.945C135.159 335.187 125.285 345.46 124.027 349.916C122.768 354.372 124.737 353.898 126.543 352.684C128.349 351.47 133.471 345.031 138.001 344.587C142.531 344.143 144.307 344.306 144.366 346.733C144.425 349.161 141.405 357.229 143.804 356.533C146.202 355.837 147.267 352.092 148.777 347.977C150.287 343.862 150.11 338.044 150.894 336.549C151.679 335.054 175.008 330.628 182.41 329.251C189.811 327.874 202.394 323.226 206.095 320.162C209.796 317.098 212.416 308.142 212.416 308.142" stroke="#1E293B" stroke-width="0.517667" stroke-linecap="round" stroke-linejoin="round"/>
<path d="M131.946 346.779C131.946 346.779 122.886 352.818 124.026 356.963C125.166 361.108 133.086 362.633 137.615 360.368C142.145 358.103 145.55 356.593 146.305 350.923C147.06 345.254 145.165 343.004 141.02 343.004C136.875 343.004 131.946 346.779 131.946 346.779Z" fill="#1E293B" stroke="#1E293B" stroke-width="0.517667" stroke-linecap="round" stroke-linejoin="round"/>
<path d="M182.41 329.252C186.856 328.298 191.221 327.001 195.466 325.374C192.846 316.299 187.354 312.451 182.647 310.852C174.594 315.145 157.126 325.3 151.383 327.061C144.958 329.03 141.376 328.704 138.267 331.946C135.159 335.188 125.285 345.461 124.027 349.917C122.768 354.373 124.737 353.899 126.543 352.685C128.349 351.471 133.471 345.032 138.001 344.588C142.531 344.144 144.307 344.307 144.366 346.734C144.425 349.162 141.405 357.23 143.804 356.534C146.202 355.838 147.267 352.093 148.777 347.978C150.287 343.863 150.11 338.045 150.909 336.55C151.708 335.055 175.008 330.688 182.41 329.252Z" fill="white" stroke="#1E293B" stroke-width="0.517667" stroke-linecap="round" stroke-linejoin="round"/>
<path d="M139.703 338.548C139.703 338.548 131.975 342.544 130.332 344.469C128.689 346.393 127.372 353.602 129.696 353.217C132.02 352.833 134.211 347.622 135.247 346.541C136.806 345.506 138.513 344.712 140.309 344.188" fill="white"/>
<path d="M139.703 338.548C139.703 338.548 131.975 342.544 130.332 344.469C128.689 346.393 127.372 353.602 129.696 353.217C132.02 352.833 134.211 347.622 135.247 346.541C136.806 345.506 138.513 344.712 140.309 344.188" stroke="#1E293B" stroke-width="0.517667" stroke-linecap="round" stroke-linejoin="round"/>
<path d="M263.959 371.499C296.032 371.499 322.032 366.634 322.032 360.633C322.032 354.633 296.032 349.768 263.959 349.768C231.887 349.768 205.887 354.633 205.887 360.633C205.887 366.634 231.887 371.499 263.959 371.499Z" fill="#6366F1"/>
<path opacity="0.5" d="M263.959 371.499C296.032 371.499 322.032 366.634 322.032 360.633C322.032 354.633 296.032 349.768 263.959 349.768C231.887 349.768 205.887 354.633 205.887 360.633C205.887 366.634 231.887 371.499 263.959 371.499Z" fill="white"/>
<path d="M314.675 361.995H213.2C212.976 361.997 212.753 361.955 212.544 361.87C212.336 361.785 212.147 361.66 211.987 361.502C211.827 361.344 211.701 361.156 211.614 360.948C211.528 360.741 211.483 360.518 211.483 360.293C211.483 360.068 211.528 359.846 211.614 359.638C211.701 359.431 211.827 359.242 211.987 359.084C212.147 358.926 212.336 358.801 212.544 358.716C212.753 358.631 212.976 358.589 213.2 358.591H314.675C314.899 358.589 315.122 358.631 315.329 358.716C315.536 358.801 315.725 358.927 315.883 359.085C316.042 359.243 316.167 359.432 316.252 359.639C316.337 359.847 316.38 360.069 316.378 360.293C316.38 360.517 316.337 360.739 316.252 360.947C316.167 361.154 316.042 361.343 315.883 361.501C315.725 361.66 315.536 361.785 315.329 361.87C315.122 361.955 314.899 361.997 314.675 361.995Z" fill="white" stroke="#1E293B" stroke-width="0.517667" stroke-linecap="round" stroke-linejoin="round"/>
<path d="M315.533 358.621H212.326C211.948 358.621 211.585 358.478 211.31 358.219C211.034 357.96 210.868 357.606 210.846 357.229L205.235 289.801C205.21 289.592 205.23 289.381 205.293 289.18C205.356 288.979 205.461 288.795 205.601 288.638C205.741 288.481 205.913 288.356 206.105 288.27C206.297 288.185 206.505 288.142 206.716 288.143H321.158C321.368 288.142 321.577 288.185 321.769 288.27C321.961 288.356 322.133 288.481 322.273 288.638C322.413 288.795 322.518 288.979 322.581 289.18C322.644 289.381 322.664 289.592 322.638 289.801L317.058 357.14C317.058 357.338 317.018 357.535 316.941 357.717C316.864 357.9 316.751 358.065 316.608 358.203C316.466 358.341 316.298 358.449 316.113 358.521C315.928 358.593 315.731 358.627 315.533 358.621Z" fill="white" stroke="#1E293B" stroke-width="0.517667" stroke-linecap="round" stroke-linejoin="round"/>
<path d="M317.057 357.14L320.373 317.365C301.129 316.24 278.155 322.457 251.938 339.184C232.62 351.5 219.016 353.292 210.386 352.167L210.786 357.14C210.809 357.517 210.975 357.872 211.25 358.13C211.525 358.389 211.889 358.533 212.266 358.532H315.473C315.669 358.546 315.865 358.521 316.051 358.458C316.237 358.396 316.409 358.297 316.556 358.168C316.703 358.038 316.824 357.881 316.91 357.704C316.996 357.528 317.046 357.336 317.057 357.14Z" fill="#1E293B"/>
<path d="M273.671 324.485C273.671 328.511 269.304 331.768 263.931 331.768C258.557 331.768 254.176 328.511 254.176 324.485C254.176 320.459 258.572 317.172 263.931 317.172C269.289 317.172 273.671 320.473 273.671 324.485Z" fill="#1E293B"/>
<path d="M127.045 359.213C123.39 363.254 119.344 366.923 114.966 370.167C107.786 375.452 111.561 383.001 112.005 390.181C112.449 397.36 118.045 423.014 130.879 424.524C143.713 426.034 140.323 375.067 153.528 370.537C166.732 366.007 197.7 372.432 216.574 372.802C235.448 373.172 230.548 362.233 230.548 362.233" stroke="#1E293B" stroke-width="0.517667" stroke-linecap="round" stroke-linejoin="round"/>
<path d="M464.643 195.343V233.831L522.833 267.434V228.709L464.643 195.343ZM513.581 250.559L473.88 227.629V211.671L513.581 234.423V250.559Z" fill="#1E293B" stroke="#1E293B" stroke-width="0.517667" stroke-miterlimit="10"/>
<path d="M513.581 211.67V223.498L522.833 228.709V195.357L464.643 228.709V267.418L494.012 250.469V238.997L473.88 250.617V234.423L494.012 222.891V212.188L503.441 217.488L513.581 211.67Z" fill="white" stroke="#1E293B" stroke-width="0.517667" stroke-miterlimit="10"/>
<path d="M513.583 234.423L507.662 231.107L494.191 238.894L503.887 244.771L513.583 239.16V234.423Z" fill="white" stroke="#1E293B" stroke-width="0.517667" stroke-miterlimit="10"/>
<path d="M443.178 72.7245L374.797 118.848L387.288 137.367L455.669 91.2434L443.178 72.7245Z" fill="#1E293B"/>
<path d="M402.046 64.3287L385.41 75.553L400.207 97.4844L416.843 86.2602L402.046 64.3287Z" fill="#1E293B"/>
<path d="M432.791 111.092L416.175 122.3L430.95 144.206L447.567 132.998L432.791 111.092Z" fill="#1E293B"/>
<path d="M420.367 66.482L411.273 72.6158L419.261 84.4585L428.355 78.3247L420.367 66.482Z" fill="#1E293B"/>
<path d="M444.934 102.896L435.84 109.029L440.997 116.675L450.091 110.541L444.934 102.896Z" fill="#1E293B"/>
<path d="M388.045 88.1551L376.399 96.0107L384.437 107.927L396.083 100.071L388.045 88.1551Z" fill="#1E293B"/>
<path d="M412.66 124.643L401.014 132.499L406.121 140.071L417.767 132.215L412.66 124.643Z" fill="#1E293B"/>
<path d="M401.804 138.633L398.223 133.325L392.878 136.931L396.46 142.239L401.804 138.633Z" fill="#1E293B"/>
<path d="M385.382 84.8345L382.493 80.5515L378.186 83.4569L381.075 87.74L385.382 84.8345Z" fill="#1E293B"/>
<path d="M263.101 2L228.151 13.872L233.11 61.0789L263.101 77.7027V2Z" fill="white" stroke="#1E293B" stroke-width="0.517667" stroke-linecap="round" stroke-linejoin="round"/>
<path d="M263.22 2L298.155 13.872L293.211 61.0789L263.22 77.7027V2Z" fill="#1E293B" stroke="#1E293B" stroke-width="0.517667" stroke-linecap="round" stroke-linejoin="round"/>
<path d="M277.815 59.5101H285.083L263.16 11.2374L241.252 59.5101H248.52L253.538 48.4374H272.782L277.815 59.5101ZM256.647 41.6428L263.175 27.2543L269.703 41.6428H256.647Z" fill="white" stroke="#1E293B" stroke-width="0.517667" stroke-linecap="round" stroke-linejoin="round"/>
<path d="M127.533 82.0545L118.118 65.7415H84.8262L127.533 139.727L170.24 65.7415H136.948L127.533 82.0545Z" fill="white" stroke="#1E293B" stroke-width="0.517667" stroke-linecap="round" stroke-linejoin="round"/>
<path d="M127.534 82.0545L118.119 65.7415H101.984L127.534 110.017L153.099 65.7415H136.949L127.534 82.0545Z" fill="#1E293B" stroke="#1E293B" stroke-width="0.517667" stroke-linecap="round" stroke-linejoin="round"/>
<path d="M79.5564 206.49C78.0761 205.912 76.4774 205.394 74.8194 204.92C75.1895 203.233 75.4707 201.59 75.678 200.006C76.8326 190.798 74.9378 184.374 70.3489 181.902C65.76 179.43 59.3503 181.369 52.2892 187.364C51.401 188.119 50.5128 188.933 49.6395 189.792C48.7365 188.933 47.8483 188.134 46.9601 187.394C39.8251 181.472 33.3857 179.592 28.8412 182.124C24.2967 184.655 22.4611 191.109 23.7045 200.228C23.9266 201.812 24.2226 203.44 24.6075 205.113C22.9644 205.601 21.3953 206.134 19.915 206.726C11.2848 210.116 6.59223 214.868 6.59223 220.049C6.59223 225.23 11.4032 229.952 20.0482 233.268C21.5285 233.846 23.1272 234.364 24.8 234.837C24.4299 236.525 24.1486 238.168 23.9414 239.752C22.7868 248.959 24.6815 255.384 29.2705 257.856C30.593 258.569 32.0761 258.93 33.5782 258.907C37.5454 258.907 42.2676 256.701 47.3302 252.394C48.2184 251.639 49.0917 250.825 49.9799 249.966C50.8681 250.825 51.7711 251.624 52.6593 252.364C57.7219 256.568 62.4293 258.729 66.3669 258.729C67.9174 258.758 69.4485 258.381 70.8078 257.634C75.3671 255.103 77.1879 248.663 75.9297 239.471C75.7224 237.887 75.4115 236.258 75.0415 234.586C76.6846 234.097 78.2537 233.564 79.734 232.987C88.3642 229.582 93.0568 224.831 93.0568 219.664C93.0568 214.498 88.2162 209.805 79.5564 206.49ZM66.0264 185.144C66.8191 185.126 67.6032 185.31 68.3061 185.676C71.1483 187.157 72.3029 192.367 71.4147 199.473C71.2371 200.953 70.9854 202.434 70.6598 203.914C67.1881 203.16 63.673 202.621 60.1348 202.3C57.8615 198.986 55.3586 195.835 52.6445 192.871C53.4438 192.086 54.258 191.39 55.0722 190.665C59.2614 187.068 63.1694 185.144 66.0264 185.144ZM67.5067 225.112C68.3949 227.362 69.1351 229.553 69.7568 231.625C67.7288 232.084 65.5823 232.484 63.3027 232.809C64.1316 231.418 64.9458 229.997 65.7304 228.546C66.3521 227.391 66.9442 226.252 67.5067 225.097V225.112ZM61.9556 226.503C60.6381 228.961 59.2762 231.255 57.8699 233.416C55.3238 233.623 52.6445 233.742 49.8615 233.757C47.0785 233.772 44.4288 233.757 41.8679 233.49C40.3876 231.314 39.0405 229.049 37.7082 226.636C36.3759 224.224 35.3693 222.196 34.3479 220.02C35.3348 217.839 36.4302 215.623 37.6342 213.373C38.8382 211.123 40.2001 208.819 41.7198 206.46C44.2808 206.253 46.9601 206.134 49.7283 206.119H50.2612C52.7925 206.119 55.2942 206.208 57.6627 206.386C59.143 208.562 60.4901 210.827 61.8076 213.24C63.125 215.653 64.176 217.681 65.1826 219.857C64.2649 222.048 63.1694 224.283 61.9556 226.488V226.503ZM49.9355 243.912C48.2677 242.096 46.6246 240.122 45.0061 237.99C46.4371 238.05 47.8878 238.079 49.3582 238.079H49.8467C51.4898 238.079 53.1182 238.079 54.7317 237.946C53.2338 240.009 51.6331 241.995 49.9355 243.897V243.912ZM33.963 228.709C34.7624 230.189 35.5914 231.551 36.4352 232.928C34.1555 232.632 31.9942 232.247 29.981 231.803C30.5732 229.73 31.2985 227.554 32.1423 225.289C32.7344 226.429 33.3265 227.569 33.963 228.709ZM32.0831 214.75C31.2097 212.529 30.4695 210.309 29.833 208.236C31.861 207.777 34.0075 207.378 36.2871 207.052C35.4581 208.424 34.6489 209.845 33.8594 211.315C33.2525 212.455 32.6604 213.551 32.0831 214.75ZM49.6543 195.95C51.3319 197.766 52.9751 199.739 54.5837 201.871C52.9701 201.871 51.3418 201.767 49.6987 201.782C48.0555 201.797 46.4124 201.782 44.7989 201.915C46.3976 199.784 48.0259 197.785 49.6691 195.95H49.6543ZM65.6267 211.138C64.8274 209.657 63.9984 208.296 63.1546 206.934C65.3948 207.23 67.5413 207.6 69.5939 208.044C69.0018 210.161 68.2765 212.337 67.4327 214.542C66.8702 213.417 66.2633 212.278 65.6415 211.138H65.6267ZM27.953 199.71C26.976 192.604 28.0862 187.438 30.9136 185.884C31.6374 185.499 32.4476 185.305 33.2673 185.321C36.1243 185.321 40.0175 187.201 44.2067 190.695C45.0209 191.376 45.8499 192.101 46.664 192.886C43.9712 195.866 41.4976 199.037 39.2625 202.374C35.7279 202.735 32.2181 203.309 28.7524 204.091C28.4267 202.582 28.1603 201.116 27.9678 199.71H27.953ZM10.8703 220.108C10.8703 216.245 16.4066 212.1 25.6733 209.332C26.7576 212.981 28.0779 216.556 29.6258 220.034C28.1146 223.524 26.8338 227.109 25.7918 230.767C16.4955 228.087 10.8851 223.987 10.8703 220.108ZM31.2837 254.155C27.8938 252.32 26.9168 245.436 28.9448 235.948C32.4117 236.701 35.9218 237.24 39.455 237.561C41.7369 240.873 44.2446 244.024 46.9601 246.991C41.7791 251.994 36.9829 254.703 33.6374 254.703C32.8198 254.733 32.0086 254.549 31.2837 254.17V254.155ZM68.691 253.963C65.8636 255.517 60.8898 253.711 55.3682 249.137C54.5491 248.456 53.735 247.731 52.9257 246.961C55.6106 243.969 58.0837 240.793 60.3273 237.457C63.8619 237.097 67.3717 236.523 70.8374 235.74C72.9542 245.214 72.0513 252.038 68.691 253.978V253.963ZM73.9016 230.5C72.8107 226.853 71.4907 223.278 69.9492 219.797C71.4497 216.303 72.7302 212.719 73.7832 209.065C75.2635 209.495 76.7438 209.968 78.0317 210.546C84.7079 213.106 88.7195 216.556 88.7343 219.783C88.7491 223.602 83.1831 227.747 73.9016 230.515V230.5Z" fill="#1E293B"/>
<path d="M57.8842 219.472C57.8842 221.07 57.4102 222.633 56.5221 223.962C55.6339 225.291 54.3716 226.327 52.8948 226.939C51.4179 227.55 49.7928 227.711 48.2249 227.399C46.6571 227.087 45.2169 226.317 44.0866 225.187C42.9562 224.056 42.1864 222.616 41.8746 221.048C41.5627 219.48 41.7228 217.855 42.3345 216.379C42.9463 214.902 43.9822 213.639 45.3114 212.751C46.6405 211.863 48.2032 211.389 49.8017 211.389C50.8637 211.387 51.9156 211.595 52.8971 212C53.8786 212.406 54.7703 213.001 55.5212 213.752C56.2722 214.503 56.8674 215.395 57.2729 216.376C57.6784 217.358 57.8861 218.41 57.8842 219.472Z" fill="#1E293B"/>
<path d="M395.471 365.993C408.208 365.993 418.534 361.129 418.534 355.128C418.534 349.127 408.208 344.263 395.471 344.263C382.734 344.263 372.408 349.127 372.408 355.128C372.408 361.129 382.734 365.993 395.471 365.993Z" fill="#6366F1"/>
<path opacity="0.5" d="M395.471 365.993C408.208 365.993 418.534 361.129 418.534 355.128C418.534 349.127 408.208 344.263 395.471 344.263C382.734 344.263 372.408 349.127 372.408 355.128C372.408 361.129 382.734 365.993 395.471 365.993Z" fill="white"/>
<path d="M378.151 332.864L380.86 354.491C380.86 357.896 387.891 360.649 396.551 360.649C405.211 360.649 412.257 357.896 412.257 354.491L414.966 332.864H378.151Z" fill="white" stroke="#1E293B" stroke-width="0.517667" stroke-linecap="round" stroke-linejoin="round"/>
<path d="M396.551 340.073C406.713 340.073 414.951 336.846 414.951 332.864C414.951 328.883 406.713 325.655 396.551 325.655C386.389 325.655 378.151 328.883 378.151 332.864C378.151 336.846 386.389 340.073 396.551 340.073Z" fill="white" stroke="#1E293B" stroke-width="0.517667" stroke-linecap="round" stroke-linejoin="round"/>
<path d="M396.552 338.387C405.218 338.387 412.243 335.915 412.243 332.865C412.243 329.816 405.218 327.344 396.552 327.344C387.886 327.344 380.86 329.816 380.86 332.865C380.86 335.915 387.886 338.387 396.552 338.387Z" fill="#1E293B" stroke="#1E293B" stroke-width="0.517667" stroke-linecap="round" stroke-linejoin="round"/>
<path d="M395.102 335.159C395.102 335.159 385.421 330.718 383.496 326.958C381.572 323.198 383.067 315.116 383.067 315.116C386.92 316.51 390.198 319.152 392.378 322.621C394.288 326.518 395.223 330.821 395.102 335.159Z" fill="#6366F1" stroke="#1E293B" stroke-width="0.517667" stroke-linecap="round" stroke-linejoin="round"/>
<path d="M395.041 334.938C395.041 334.938 395.411 323.095 398.283 318.491C401.154 313.888 411.102 311.415 411.102 311.415C411.102 311.415 410.14 320.208 406.513 325.76C402.886 331.311 395.041 334.938 395.041 334.938Z" fill="#6366F1" stroke="#1E293B" stroke-width="0.517667" stroke-linecap="round" stroke-linejoin="round"/>
<path d="M396.373 335.706C396.373 335.706 390.822 329.193 390.822 321.732C390.822 314.272 396.743 308.543 396.743 308.543C399.276 312.14 400.975 316.256 401.717 320.592C402.502 326.899 396.373 335.706 396.373 335.706Z" fill="#6366F1" stroke="#1E293B" stroke-width="0.517667" stroke-linecap="round" stroke-linejoin="round"/>
</g>
<defs>
<filter id="filter0_dd_118_8178" x="0.166626" y="0.74115" width="527.926" height="608.259" filterUnits="userSpaceOnUse" color-interpolation-filters="sRGB">
<feFlood flood-opacity="0" result="BackgroundImageFix"/>
<feColorMatrix in="SourceAlpha" type="matrix" values="0 0 0 0 0 0 0 0 0 0 0 0 0 0 0 0 0 0 127 0" result="hardAlpha"/>
<feMorphology radius="1" operator="erode" in="SourceAlpha" result="effect1_dropShadow_118_8178"/>
<feOffset dy="4"/>
<feGaussianBlur stdDeviation="3"/>
<feComposite in2="hardAlpha" operator="out"/>
<feColorMatrix type="matrix" values="0 0 0 0 0.0627451 0 0 0 0 0.0941176 0 0 0 0 0.156863 0 0 0 0.1 0"/>
<feBlend mode="normal" in2="BackgroundImageFix" result="effect1_dropShadow_118_8178"/>
<feColorMatrix in="SourceAlpha" type="matrix" values="0 0 0 0 0 0 0 0 0 0 0 0 0 0 0 0 0 0 127 0" result="hardAlpha"/>
<feMorphology radius="2" operator="erode" in="SourceAlpha" result="effect2_dropShadow_118_8178"/>
<feOffset dy="2"/>
<feGaussianBlur stdDeviation="2"/>
<feComposite in2="hardAlpha" operator="out"/>
<feColorMatrix type="matrix" values="0 0 0 0 0.0627451 0 0 0 0 0.0941176 0 0 0 0 0.156863 0 0 0 0.1 0"/>
<feBlend mode="normal" in2="effect1_dropShadow_118_8178" result="effect2_dropShadow_118_8178"/>
<feBlend mode="normal" in="SourceGraphic" in2="effect2_dropShadow_118_8178" result="shape"/>
</filter>
</defs>
</svg>
